<svg xmlns="http://www.w3.org/2000/svg" width="421" height="421" fill="none" viewBox="0 0 421 421"><path fill="#000" d="M330.816 90.0572C324.057 83.2977 305.885 77.5288 270.871 89.5059C237.892 100.787 198.558 125.521 162.041 162.039C125.523 198.556 100.789 237.89 89.5079 270.869C77.5305 305.884 83.2977 324.057 90.0571 330.816C96.8174 337.575 114.99 343.34 150.002 331.364C182.981 320.082 222.315 295.348 258.833 258.831L279.663 279.661L275.995 283.284C199.356 358.042 108.318 388.791 70.1324 352.527L69.2272 351.646C30.9946 313.414 63.2225 219.197 141.211 141.209L144.876 137.588C222.128 62.2311 314.011 31.5918 351.646 69.2272L352.529 70.1303C389.373 108.927 357.042 202.282 279.663 279.661L258.833 258.831C295.35 222.313 320.085 182.979 331.366 150C343.342 114.988 337.575 96.8174 330.816 90.0572Z"/><path fill="#000" d="M340.498 218.813C334.781 227.847 328.451 236.9 321.539 245.882C325.725 254.325 329.171 262.532 331.856 270.38C343.833 305.394 338.066 323.568 331.307 330.327C324.547 337.086 306.374 342.851 271.361 330.874C263.495 328.183 255.268 324.725 246.803 320.526C237.807 327.43 228.74 333.752 219.693 339.458C273.939 370.25 325.028 376.922 351.232 352.038L352.137 351.157C378.04 325.254 371.599 273.654 340.498 218.813ZM211.097 299.215C201.968 305.574 192.91 311.179 184.058 316.01C193.06 322.76 202.105 328.898 211.096 334.392C220.086 328.898 229.133 322.761 238.135 316.011C229.283 311.181 220.225 305.574 211.097 299.215ZM127.432 217.802C121.167 226.995 115.712 236.071 111.086 244.879C120.305 256.501 130.532 268.004 141.7 279.172L145.368 282.794C155.506 292.683 165.897 301.802 176.383 310.098C185.194 305.468 194.274 300.007 203.471 293.737C189.748 283.584 175.948 271.759 162.53 258.342C149.243 245.055 137.518 231.393 127.432 217.802ZM317.08 183.195C312.234 192.034 306.616 201.076 300.248 210.187C306.602 219.312 312.202 228.367 317.027 237.216C323.785 228.229 329.934 219.199 335.44 210.222C329.954 201.235 323.823 192.194 317.08 183.195ZM105.112 183.196C98.3701 192.195 92.2389 201.236 86.7531 210.222C92.2589 219.199 98.4081 228.229 105.166 237.216C109.991 228.367 115.592 219.312 121.945 210.187C115.578 201.076 109.959 192.035 105.112 183.196ZM245.739 110.006C236.943 114.649 227.882 120.118 218.707 126.392C232.324 136.491 246.011 148.237 259.323 161.549C272.766 174.991 284.611 188.816 294.776 202.564C301.055 193.387 306.528 184.323 311.175 175.524C301.851 163.728 291.486 152.051 280.153 140.719L276.487 137.099C266.435 127.293 256.135 118.245 245.739 110.006ZM202.518 80.6348C147.507 49.3107 95.6917 42.7625 69.7169 68.7373L68.8341 69.6406C43.8795 95.9179 50.6611 147.222 81.6769 201.64C87.3739 192.598 93.686 183.534 100.581 174.541C96.2761 165.91 92.739 157.523 89.9982 149.511C78.0217 114.499 83.788 96.3276 90.547 89.5674C97.3064 82.808 115.478 77.0396 150.492 89.0166C158.486 91.7509 166.852 95.2761 175.462 99.5674C184.439 92.6661 193.488 86.3435 202.518 80.6348ZM211.096 85.7041C202.122 91.2025 193.096 97.3439 184.112 104.094C192.949 108.935 201.988 114.55 211.096 120.912C220.204 114.55 229.244 108.935 238.08 104.094C229.097 97.3437 220.07 91.2026 211.096 85.7041Z"/><path fill="#000" d="M173.803 194.605C192.481 208.681 200.918 226.178 197.929 250.015C212.005 231.337 229.502 222.902 253.339 225.889C234.659 211.815 226.224 194.316 229.213 170.479C215.137 189.159 197.64 197.594 173.803 194.605Z"/><path fill="url(#paint0_linear_27_33)" d="M334.816 90.0571C328.057 83.2977 309.885 77.5288 274.871 89.5059C241.892 100.787 202.558 125.521 166.041 162.039C129.523 198.556 104.789 237.89 93.5079 270.869C81.5305 305.884 87.2977 324.057 94.0571 330.816C100.817 337.575 118.99 343.34 154.002 331.364C186.981 320.082 226.315 295.348 262.833 258.831L283.663 279.661L279.995 283.284C203.356 358.042 112.318 388.791 74.1324 352.527L73.2272 351.646C34.9946 313.414 67.2225 219.197 145.211 141.209L148.876 137.588C226.128 62.2311 318.011 31.5918 355.646 69.2272L356.529 70.1303C393.373 108.927 361.042 202.282 283.663 279.661L262.833 258.831C299.35 222.313 324.085 182.979 335.366 150C347.342 114.988 341.575 96.8174 334.816 90.0571Z"/><path fill="url(#paint1_linear_27_33)" d="M344.498 218.813C338.781 227.847 332.451 236.9 325.539 245.882C329.725 254.325 333.171 262.532 335.856 270.38C347.833 305.394 342.066 323.568 335.307 330.327C328.547 337.086 310.374 342.851 275.361 330.874C267.495 328.183 259.268 324.725 250.803 320.526C241.807 327.43 232.74 333.752 223.693 339.458C277.939 370.25 329.028 376.922 355.232 352.038L356.137 351.157C382.04 325.254 375.599 273.654 344.498 218.813ZM215.097 299.215C205.968 305.574 196.91 311.179 188.058 316.01C197.06 322.76 206.105 328.898 215.096 334.392C224.086 328.898 233.133 322.761 242.135 316.011C233.283 311.181 224.225 305.574 215.097 299.215ZM131.432 217.802C125.167 226.995 119.712 236.071 115.086 244.879C124.305 256.501 134.532 268.004 145.7 279.172L149.368 282.794C159.506 292.683 169.897 301.802 180.383 310.098C189.194 305.468 198.274 300.007 207.471 293.737C193.748 283.584 179.948 271.759 166.53 258.342C153.243 245.055 141.518 231.393 131.432 217.802ZM321.08 183.195C316.234 192.034 310.616 201.076 304.248 210.187C310.602 219.312 316.202 228.367 321.027 237.216C327.785 228.229 333.934 219.199 339.44 210.222C333.954 201.235 327.823 192.194 321.08 183.195ZM109.112 183.196C102.37 192.195 96.2389 201.236 90.7531 210.222C96.2589 219.199 102.408 228.229 109.166 237.216C113.991 228.367 119.592 219.312 125.945 210.187C119.578 201.076 113.959 192.035 109.112 183.196ZM249.739 110.006C240.943 114.649 231.882 120.118 222.707 126.392C236.324 136.491 250.011 148.237 263.323 161.549C276.766 174.991 288.611 188.816 298.776 202.564C305.055 193.387 310.528 184.323 315.175 175.524C305.851 163.728 295.486 152.051 284.153 140.719L280.487 137.099C270.435 127.293 260.135 118.245 249.739 110.006ZM206.518 80.6348C151.507 49.3107 99.6918 42.7625 73.7169 68.7373L72.8341 69.6406C47.8795 95.9179 54.6611 147.222 85.6769 201.64C91.3739 192.598 97.686 183.534 104.581 174.541C100.276 165.91 96.739 157.523 93.9982 149.511C82.0217 114.499 87.788 96.3276 94.547 89.5674C101.306 82.808 119.478 77.0396 154.492 89.0166C162.486 91.7509 170.852 95.2761 179.462 99.5674C188.439 92.6661 197.488 86.3435 206.518 80.6348ZM215.096 85.7041C206.122 91.2025 197.096 97.3439 188.112 104.094C196.949 108.935 205.988 114.55 215.096 120.912C224.204 114.55 233.244 108.935 242.08 104.094C233.097 97.3437 224.07 91.2026 215.096 85.7041Z"/><path fill="url(#paint2_linear_27_33)" d="M177.803 194.605C196.481 208.681 204.918 226.178 201.929 250.015C216.005 231.337 233.502 222.901 257.339 225.889C238.659 211.815 230.224 194.316 233.213 170.479C219.137 189.159 201.64 197.594 177.803 194.605Z"/><defs><linearGradient id="paint0_linear_27_33" x1="89.204" x2="235.873" y1="237.667" y2="344.978" gradientUnits="userSpaceOnUse"><stop stop-color="#AE0000"/><stop offset="1" stop-color="#CC6D00"/></linearGradient><linearGradient id="paint1_linear_27_33" x1="186.639" x2="302.998" y1="126.292" y2="254.437" gradientUnits="userSpaceOnUse"><stop stop-color="#AE0000"/><stop offset="1" stop-color="#CC6D00"/></linearGradient><linearGradient id="paint2_linear_27_33" x1="226.408" x2="224.935" y1="170.479" y2="266.217" gradientUnits="userSpaceOnUse"><stop stop-color="#AE0000"/><stop offset=".785" stop-color="#CC6D00"/></linearGradient></defs></svg>