<svg xmlns="http://www.w3.org/2000/svg" width="749" height="202" fill="none" viewBox="0 0 749 202"><path fill="url(#paint0_linear_32_2)" d="M158.556 43.1631C155.316 39.9234 146.607 37.1585 129.825 42.8989C114.019 48.3058 95.1662 60.1605 77.6638 77.6628C60.1615 95.1652 48.3069 114.018 42.8999 129.824C37.1593 146.606 39.9234 155.316 43.1631 158.556C46.4032 161.795 55.1129 164.558 71.8941 158.818C87.7004 153.411 106.553 141.556 124.055 124.054L134.039 134.038L132.281 135.774C95.5488 171.605 51.9155 186.342 33.6135 168.961L33.1796 168.539C14.8553 150.215 30.3017 105.058 67.6803 67.6793L69.4372 65.9439C106.463 29.8265 150.501 15.1415 168.539 33.1796L168.962 33.6125C186.621 52.2073 171.125 96.9508 134.039 134.038L124.055 124.054C141.557 106.552 153.412 87.6994 158.819 71.8931C164.559 55.1122 161.795 46.4032 158.556 43.1631Z"/><path fill="url(#paint1_linear_32_2)" d="M163.197 104.875C160.456 109.205 157.419 113.542 154.106 117.848C156.112 121.895 157.767 125.828 159.054 129.59C164.795 146.372 162.03 155.082 158.79 158.321C155.55 161.561 146.841 164.324 130.06 158.584C126.289 157.294 122.347 155.634 118.289 153.621C113.977 156.931 109.631 159.961 105.294 162.696C131.294 177.455 155.781 180.654 168.34 168.728L168.774 168.305C181.189 155.89 178.102 131.159 163.197 104.875ZM101.176 143.409C96.8017 146.456 92.4608 149.142 88.2191 151.457C92.5334 154.692 96.8675 157.635 101.176 160.268C105.485 157.635 109.819 154.692 114.133 151.457C109.891 149.142 105.551 146.456 101.176 143.409ZM61.0784 104.389C58.076 108.795 55.4615 113.145 53.2444 117.366C57.6628 122.936 62.5627 128.451 67.9153 133.804L69.6732 135.54C74.5321 140.28 79.5145 144.647 84.5403 148.623C88.7631 146.404 93.1136 143.786 97.5208 140.781C90.9441 135.915 84.3291 130.251 77.8987 123.82C71.5305 117.452 65.9128 110.903 61.0784 104.389ZM151.97 87.8037C149.647 92.0398 146.955 96.3732 143.904 100.739C146.949 105.113 149.633 109.453 151.946 113.693C155.185 109.386 158.131 105.057 160.77 100.754C158.141 96.4476 155.201 92.1161 151.97 87.8037ZM50.3821 87.8027C47.1507 92.1155 44.2107 96.4472 41.5814 100.754C44.2204 105.057 47.1672 109.386 50.4066 113.693C52.7192 109.453 55.4027 105.113 58.4476 100.739C55.3959 96.373 52.7048 92.0389 50.3821 87.8027ZM117.78 52.7275C113.563 54.9531 109.219 57.5721 104.822 60.5791C111.348 65.4198 117.91 71.0481 124.29 77.4287C130.733 83.8716 136.409 90.4985 141.282 97.0879C144.291 92.6895 146.911 88.3441 149.139 84.127C144.67 78.4736 139.705 72.8764 134.274 67.4453L132.517 65.71C127.7 61.0108 122.762 56.6762 117.78 52.7275ZM97.0657 38.6504C70.6988 23.6359 45.8642 20.4955 33.4144 32.9453L32.9915 33.3779C21.0314 45.972 24.2831 70.5595 39.1478 96.6406C41.8781 92.3074 44.9038 87.9641 48.2083 83.6543C46.1451 79.5178 44.4486 75.4992 43.1351 71.6592C37.3949 54.8784 40.1583 46.1688 43.3978 42.9287C46.6375 39.689 55.3475 36.9246 72.1292 42.665C75.9611 43.9758 79.9716 45.6663 84.0989 47.7236C88.4013 44.4161 92.738 41.3864 97.0657 38.6504ZM101.176 41.0811C96.875 43.7165 92.5483 46.6592 88.2425 49.8945C92.4774 52.2149 96.8109 54.903 101.176 57.9521C105.541 54.9032 109.874 52.2148 114.109 49.8945C109.803 46.6594 105.477 43.7164 101.176 41.0811Z"/><path fill="url(#paint2_linear_32_2)" d="M83.3011 93.2715C92.2535 100.018 96.2972 108.404 94.8646 119.829C101.611 110.877 109.997 106.834 121.422 108.265C112.469 101.52 108.426 93.1328 109.858 81.708C103.112 90.6611 94.7259 94.704 83.3011 93.2715Z"/><path fill="#000" d="M237.559 126.259C232.642 126.259 228.019 125.29 223.69 123.351C219.361 121.377 215.552 118.658 212.262 115.195C208.973 111.732 206.393 107.733 204.523 103.196C202.653 98.6252 201.718 93.7425 201.718 88.5481C201.718 83.3538 202.653 78.4883 204.523 73.9519C206.393 69.3809 208.973 65.3639 212.262 61.901C215.552 58.438 219.361 55.737 223.69 53.7977C228.019 51.8238 232.642 50.8369 237.559 50.8369C242.511 50.8369 247.151 51.8238 251.48 53.7977C255.809 55.737 259.618 58.438 262.908 61.901C266.198 65.3639 268.76 69.3809 270.595 73.9519C272.465 78.4883 273.4 83.3538 273.4 88.5481C273.4 93.7425 272.465 98.6252 270.595 103.196C268.76 107.733 266.198 111.732 262.908 115.195C259.618 118.658 255.809 121.377 251.48 123.351C247.151 125.29 242.511 126.259 237.559 126.259ZM237.559 113.585C240.745 113.585 243.74 112.927 246.545 111.611C249.35 110.295 251.809 108.495 253.921 106.209C256.068 103.889 257.731 101.222 258.908 98.2097C260.12 95.1969 260.726 91.9764 260.726 88.5481C260.726 85.1198 260.12 81.8993 258.908 78.8866C257.696 75.8392 256.017 73.1728 253.87 70.8872C251.757 68.6017 249.298 66.801 246.493 65.4851C243.723 64.1692 240.745 63.5112 237.559 63.5112C234.373 63.5112 231.378 64.1692 228.573 65.4851C225.768 66.801 223.292 68.619 221.145 70.9392C219.033 73.2247 217.37 75.8738 216.158 78.8866C214.981 81.8993 214.392 85.1198 214.392 88.5481C214.392 92.0111 214.998 95.2489 216.21 98.2616C217.422 101.274 219.084 103.941 221.197 106.261C223.344 108.547 225.803 110.347 228.573 111.663C231.378 112.944 234.373 113.585 237.559 113.585Z"/><path fill="#000" d="M296.415 150.881H283.74V72.965H296.415V79.5619C298.112 77.2071 300.189 75.3025 302.648 73.848C305.141 72.359 308.05 71.6145 311.375 71.6145C315.184 71.6145 318.733 72.3243 322.023 73.7441C325.313 75.1639 328.204 77.1378 330.698 79.6657C333.226 82.159 335.182 85.0506 336.567 88.3404C337.987 91.6301 338.697 95.1623 338.697 98.9369C338.697 102.711 337.987 106.261 336.567 109.585C335.182 112.91 333.226 115.836 330.698 118.364C328.204 120.857 325.313 122.814 322.023 124.234C318.733 125.653 315.184 126.363 311.375 126.363C308.05 126.363 305.141 125.636 302.648 124.182C300.189 122.693 298.112 120.771 296.415 118.416V150.881ZM311.219 83.8213C308.587 83.8213 306.232 84.5138 304.154 85.899C302.077 87.2495 300.449 89.0676 299.272 91.3531C298.094 93.6386 297.506 96.1666 297.506 98.9369C297.506 101.707 298.094 104.252 299.272 106.573C300.449 108.858 302.077 110.694 304.154 112.079C306.232 113.429 308.587 114.105 311.219 114.105C313.885 114.105 316.327 113.429 318.543 112.079C320.759 110.728 322.525 108.91 323.841 106.625C325.157 104.304 325.815 101.742 325.815 98.9369C325.815 96.1666 325.157 93.6386 323.841 91.3531C322.525 89.0676 320.759 87.2495 318.543 85.899C316.361 84.5138 313.92 83.8213 311.219 83.8213Z"/><path fill="#000" d="M369.902 126.259C365.123 126.259 360.76 125.03 356.812 122.571C352.899 120.113 349.765 116.806 347.411 112.65C345.09 108.495 343.93 103.906 343.93 98.885C343.93 95.1104 344.606 91.5782 345.956 88.2884C347.307 84.964 349.159 82.0552 351.514 79.5619C353.904 77.0339 356.674 75.0601 359.825 73.6403C362.976 72.2205 366.335 71.5106 369.902 71.5106C373.954 71.5106 377.659 72.3763 381.018 74.1078C384.412 75.8046 387.286 78.1421 389.641 81.1202C391.996 84.0983 393.71 87.4919 394.783 91.3012C395.857 95.1104 396.099 99.0927 395.511 103.248H357.54C358.024 105.187 358.821 106.936 359.929 108.495C361.037 110.018 362.44 111.248 364.137 112.183C365.833 113.083 367.755 113.55 369.902 113.585C372.119 113.62 374.127 113.1 375.928 112.027C377.763 110.919 379.287 109.43 380.499 107.56L393.433 110.572C391.32 115.178 388.169 118.953 383.979 121.896C379.789 124.805 375.097 126.259 369.902 126.259ZM357.124 93.7425H382.68C382.3 91.6648 381.486 89.7948 380.239 88.1326C379.027 86.4358 377.521 85.0852 375.72 84.081C373.919 83.0767 371.98 82.5746 369.902 82.5746C367.825 82.5746 365.903 83.0767 364.137 84.081C362.37 85.0506 360.864 86.3838 359.617 88.0806C358.405 89.7428 357.574 91.6301 357.124 93.7425Z"/><path fill="#000" d="M451.543 92.0803V124.909H438.868V95.4047C438.868 93.3616 438.366 91.5089 437.362 89.8467C436.358 88.1499 435.007 86.8167 433.31 85.8471C431.648 84.8428 429.795 84.3407 427.752 84.3407C425.709 84.3407 423.839 84.8428 422.142 85.8471C420.48 86.8167 419.147 88.1499 418.143 89.8467C417.173 91.5089 416.688 93.3616 416.688 95.4047V124.909H404.014L403.962 72.965H416.636L416.688 77.588C418.454 75.718 420.567 74.2463 423.025 73.1728C425.484 72.0646 428.133 71.5106 430.973 71.5106C434.747 71.5106 438.193 72.4456 441.31 74.3155C444.426 76.1509 446.902 78.6269 448.738 81.7435C450.608 84.8255 451.543 88.2711 451.543 92.0803Z"/><path fill="#000" d="M486.849 124.909V52.1875H529.806V64.8618H499.523V79.6138H524.82V92.2881H499.523V124.909H486.849Z"/><path fill="#000" d="M534.329 72.965H547.003V124.909H534.329V72.965ZM540.77 66.2642C538.9 66.2642 537.324 65.6582 536.043 64.4462C534.762 63.1995 534.121 61.6412 534.121 59.7713C534.121 57.9359 534.762 56.3949 536.043 55.1483C537.324 53.9016 538.883 53.2783 540.718 53.2783C542.553 53.2783 544.094 53.9016 545.341 55.1483C546.622 56.3949 547.263 57.9359 547.263 59.7713C547.263 61.6412 546.64 63.1995 545.393 64.4462C544.146 65.6582 542.605 66.2642 540.77 66.2642Z"/><path fill="#000" d="M581.127 126.259C576.348 126.259 571.985 125.03 568.037 122.571C564.124 120.113 560.99 116.806 558.635 112.65C556.315 108.495 555.155 103.906 555.155 98.885C555.155 95.1104 555.83 91.5782 557.181 88.2884C558.531 84.964 560.384 82.0552 562.739 79.5619C565.128 77.0339 567.899 75.0601 571.05 73.6403C574.201 72.2205 577.56 71.5106 581.127 71.5106C585.179 71.5106 588.884 72.3763 592.243 74.1078C595.637 75.8046 598.511 78.1421 600.866 81.1202C603.22 84.0983 604.935 87.4919 606.008 91.3012C607.082 95.1104 607.324 99.0927 606.735 103.248H568.764C569.249 105.187 570.046 106.936 571.154 108.495C572.262 110.018 573.664 111.248 575.361 112.183C577.058 113.083 578.98 113.55 581.127 113.585C583.343 113.62 585.352 113.1 587.152 112.027C588.988 110.919 590.511 109.43 591.724 107.56L604.658 110.572C602.545 115.178 599.394 118.953 595.204 121.896C591.014 124.805 586.321 126.259 581.127 126.259ZM568.349 93.7425H593.905C593.524 91.6648 592.71 89.7948 591.464 88.1326C590.252 86.4358 588.745 85.0852 586.945 84.081C585.144 83.0767 583.205 82.5746 581.127 82.5746C579.049 82.5746 577.127 83.0767 575.361 84.081C573.595 85.0506 572.089 86.3838 570.842 88.0806C569.63 89.7428 568.799 91.6301 568.349 93.7425Z"/><path fill="#000" d="M630.916 125.844C628.215 125.671 625.6 125.134 623.072 124.234C620.579 123.299 618.363 122.035 616.424 120.442C614.484 118.849 612.995 116.944 611.956 114.728L622.657 110.157C623.072 110.849 623.748 111.594 624.683 112.39C625.618 113.152 626.726 113.793 628.007 114.312C629.323 114.832 630.76 115.091 632.318 115.091C633.634 115.091 634.881 114.918 636.058 114.572C637.27 114.191 638.24 113.62 638.967 112.858C639.729 112.096 640.11 111.109 640.11 109.897C640.11 108.616 639.66 107.629 638.759 106.936C637.894 106.209 636.786 105.672 635.435 105.326C634.119 104.945 632.838 104.599 631.591 104.287C628.301 103.629 625.237 102.608 622.397 101.222C619.592 99.8373 617.324 98.0539 615.593 95.8722C613.896 93.6559 613.047 90.9895 613.047 87.8729C613.047 84.4446 613.948 81.4838 615.748 78.9905C617.584 76.4972 619.956 74.5752 622.865 73.2247C625.808 71.8742 628.977 71.1989 632.37 71.1989C636.491 71.1989 640.266 72.0646 643.694 73.7961C647.157 75.4929 649.893 77.8997 651.901 81.0163L641.876 86.9379C641.391 86.1068 640.716 85.3449 639.85 84.6524C638.985 83.9251 637.998 83.3364 636.889 82.8863C635.781 82.4015 634.621 82.1244 633.409 82.0552C631.851 81.9859 630.431 82.1244 629.15 82.4707C627.869 82.817 626.83 83.4057 626.033 84.2368C625.271 85.0679 624.89 86.176 624.89 87.5612C624.89 88.8771 625.41 89.864 626.449 90.522C627.488 91.1453 628.734 91.6301 630.189 91.9764C631.678 92.3227 633.098 92.7036 634.448 93.1192C637.495 94.1234 640.352 95.3528 643.019 96.8072C645.72 98.2616 647.884 100.045 649.512 102.157C651.139 104.27 651.919 106.798 651.849 109.741C651.849 113.1 650.845 116.044 648.837 118.572C646.828 121.065 644.231 122.97 641.045 124.285C637.894 125.601 634.517 126.121 630.916 125.844Z"/><path fill="#000" d="M688.581 85.6393H678.504V124.909H665.829V85.6393H658.142V72.965H665.829V56.6546H678.504V72.965H688.581V85.6393Z"/><path fill="#000" d="M735.92 72.965H748.595V124.909H735.92L735.349 118.468C733.929 120.788 732.042 122.675 729.687 124.13C727.367 125.549 724.614 126.259 721.428 126.259C717.584 126.259 713.983 125.532 710.624 124.078C707.265 122.623 704.304 120.615 701.741 118.052C699.213 115.49 697.222 112.529 695.768 109.17C694.348 105.811 693.638 102.209 693.638 98.3655C693.638 94.6602 694.313 91.18 695.664 87.9248C697.049 84.6697 698.971 81.8128 701.43 79.3541C703.888 76.8954 706.728 74.9735 709.948 73.5883C713.169 72.2031 716.632 71.5106 720.337 71.5106C723.766 71.5106 726.83 72.2724 729.531 73.7961C732.267 75.3198 734.587 77.259 736.492 79.6138L735.92 72.965ZM721.116 114.053C723.817 114.053 726.207 113.377 728.285 112.027C730.362 110.676 731.99 108.858 733.167 106.573C734.345 104.252 734.933 101.707 734.933 98.9369C734.933 96.1319 734.345 93.5867 733.167 91.3012C731.99 88.981 730.345 87.1457 728.233 85.7951C726.155 84.4446 723.783 83.7693 721.116 83.7693C718.45 83.7693 716.009 84.4619 713.792 85.8471C711.611 87.1976 709.862 89.0156 708.546 91.3012C707.265 93.5867 706.624 96.1319 706.624 98.9369C706.624 101.742 707.282 104.287 708.598 106.573C709.914 108.858 711.663 110.676 713.844 112.027C716.061 113.377 718.485 114.053 721.116 114.053Z"/><defs><linearGradient id="paint0_linear_32_2" x1="40.837" x2="111.134" y1="113.911" y2="165.343" gradientUnits="userSpaceOnUse"><stop stop-color="#AE0000"/><stop offset="1" stop-color="#CC6D00"/></linearGradient><linearGradient id="paint1_linear_32_2" x1="87.537" x2="143.306" y1="60.531" y2="121.948" gradientUnits="userSpaceOnUse"><stop stop-color="#AE0000"/><stop offset="1" stop-color="#CC6D00"/></linearGradient><linearGradient id="paint2_linear_32_2" x1="106.597" x2="105.891" y1="81.708" y2="127.594" gradientUnits="userSpaceOnUse"><stop stop-color="#AE0000"/><stop offset=".785" stop-color="#CC6D00"/></linearGradient></defs></svg>